<?xml version="1.0" encoding="utf-8"?>
<!-- Generator: Adobe Illustrator 27.5.0, SVG Export Plug-In . SVG Version: 6.00 Build 0)  -->
<svg version="1.1" xmlns="http://www.w3.org/2000/svg" xmlns:xlink="http://www.w3.org/1999/xlink" x="0px" y="0px"
	 viewBox="0 0 500 500" style="enable-background:new 0 0 500 500;" xml:space="preserve">
<g id="BACKGROUND">
</g>
<g id="OBJECTS">
	<g>
		<g>
			<g>
				<polygon style="fill:#D18252;" points="332.876,314.244 330.095,304.945 359.605,286.534 363.386,264.662 382.566,259.731 
					379.499,295.681 				"/>
				<polygon style="fill:#FF7EE3;" points="361.737,274.202 363.671,257.11 382.566,259.731 380.799,280.44 				"/>
			</g>
			<g>
				<g>
					<path style="fill:#D18252;" d="M326.386,316.313l-7.994,2.637c-0.241,0.079-0.455,0.22-0.621,0.411
						c-0.495,0.57-1.449,1.788-0.733,1.986c0.94,0.26,9.639-2.424,9.639-2.424"/>
					<path style="fill:#D18252;" d="M327.079,306.523l-1.604,2.086c-0.284,0.37-0.632,0.685-1.026,0.933l-6.618,3.604
						c0,0-1.553,1.666-0.596,2.158c0.957,0.492,8.617-1.963,8.617-1.963l-9.234,3.046c-0.194,0.064-0.367,0.176-0.502,0.328
						c-0.527,0.593-1.787,2.128-0.925,2.367c1.072,0.296,10.994-2.764,10.994-2.764"/>
					<path style="fill:#D18252;" d="M319.283,321.846c0.183-0.381,0.679-0.831,1.305-1.256l5.46-1.402l-0.605-6.131l1.636-6.534
						l4.262-1.744c0,0,5.846,3.231,1.707,11.914c-0.285,0.599-0.742,1.104-1.303,1.457l-4.792,3.014
						c-0.103,0.046-0.209,0.079-0.32,0.101c-1.102,0.215-6.765,1.817-7.194,1.698C319.195,322.896,319.115,322.195,319.283,321.846z
						"/>
				</g>
				<path style="fill:#D18252;" d="M325.858,309.03l0.298-2.002c0.095-0.914-0.731-1.209-1.469-1.758l-2.526-1.398
					c-0.323-0.179-0.362-0.634-0.067-0.856c0.568-0.429,1.687-1.307,3.387-0.615l6.465,2.358L325.858,309.03z"/>
			</g>
		</g>
		<g>
			<path style="fill:#D18252;" d="M450.417,383.062c3.952,4.925,11.191,15.511,12.405,17.452c0.96,1.535-9.819,8.796-10.358,8.205
				c-3.009-3.301-11.191-12.363-13.369-14.712c-3.677-3.964-7.964-8.827-12.133-13.876l14.715-10.68
				C444.906,374.916,448.351,380.486,450.417,383.062z"/>
			<g>
				<path style="fill:#15664C;" d="M450.272,406.402l-9.633,22.843c-1.029,2.44,1.901,4.625,3.947,2.943l27.303-22.216
					c2.007-1.759-12.278-13.595-12.278-13.595l-0.076,2.07C459.358,403.293,455.089,406.959,450.272,406.402L450.272,406.402z"/>
				<path style="fill:#FF7EE3;" d="M439.779,432.143l1.818,2.244c0.39,0.482,1.097,0.556,1.579,0.166l29.967-24.272
					c0.482-0.39,0.556-1.097,0.166-1.579l-1.818-2.244c-0.39-0.482-1.098-0.556-1.579-0.166l-29.967,24.272
					C439.463,430.953,439.389,431.661,439.779,432.143z"/>
				<path style="fill:#FF7EE3;" d="M452.911,411.493c0.443-0.032,0.84-0.335,0.971-0.786c0.168-0.58-0.167-1.186-0.746-1.354
					l-3.941-1.139c-0.578-0.165-1.186,0.167-1.353,0.746c-0.168,0.58,0.167,1.186,0.746,1.354l3.941,1.139
					C452.657,411.491,452.786,411.503,452.911,411.493z"/>
				<path style="fill:#FF7EE3;" d="M451.416,415.401c0.443-0.032,0.84-0.335,0.971-0.787c0.167-0.579-0.167-1.185-0.747-1.353
					l-3.941-1.138c-0.58-0.166-1.186,0.167-1.353,0.747c-0.168,0.579,0.166,1.185,0.746,1.353l3.941,1.138
					C451.161,415.398,451.29,415.41,451.416,415.401z"/>
				<path style="fill:#FF7EE3;" d="M449.737,419.522c0.443-0.032,0.84-0.335,0.971-0.787c0.168-0.579-0.166-1.185-0.746-1.353
					l-3.941-1.138c-0.58-0.167-1.186,0.167-1.354,0.747c-0.167,0.579,0.167,1.185,0.747,1.353l3.941,1.138
					C449.482,419.519,449.611,419.531,449.737,419.522z"/>
			</g>
			<path style="fill:#522169;" d="M395.132,317.438l24.312-21.725c0,0,15.971,20.798,11.743,38.559
				c-2.863,12.027,9.975,31.494,19.75,39.108l-26.051,19.017c-5.66-6.855-9.907-15.368-12.051-21.067
				C406.582,354.698,395.132,317.438,395.132,317.438z"/>
			<path style="fill:#D18252;" d="M394.833,397.126c0.021,6.448-0.938,19.507-1.204,21.83c-0.211,1.837-13.438,0.774-13.492-0.042
				c-0.302-4.551-1.066-16.994-1.31-20.256c-0.413-5.505-0.741-12.116-0.855-18.802l18.546,0.839
				C395.617,387.115,394.822,393.754,394.833,397.126z"/>
			<g>
				<path style="fill:#15664C;" d="M379.861,415.669l-22.231,12.107c-2.375,1.293-1.426,4.903,1.278,4.862l35.939-0.36
					c2.722-0.127-1.151-18.669-1.151-18.669l-1.378,1.604C389.095,418.97,383.352,419.18,379.861,415.669L379.861,415.669z"/>
				<path style="fill:#FF7EE3;" d="M355.1,429.519l0.023,2.996c0.005,0.62,0.511,1.119,1.132,1.114l39.423-0.306
					c0.62-0.005,1.119-0.511,1.114-1.132l-0.023-2.996c-0.005-0.62-0.512-1.119-1.132-1.114l-39.423,0.306
					C355.594,428.392,355.095,428.899,355.1,429.519z"/>
				<path style="fill:#FF7EE3;" d="M379.36,421.61c0.223,0,0.448-0.066,0.644-0.206c0.503-0.356,0.622-1.053,0.265-1.555
					l-2.422-3.417c-0.355-0.503-1.052-0.623-1.556-0.265c-0.503,0.356-0.622,1.053-0.265,1.555l2.422,3.417
					C378.666,421.446,379.01,421.61,379.36,421.61z"/>
				<path style="fill:#FF7EE3;" d="M375.678,423.778c0.223,0,0.448-0.066,0.644-0.206c0.503-0.356,0.622-1.053,0.265-1.555
					l-2.422-3.417c-0.356-0.502-1.053-0.623-1.556-0.265c-0.503,0.356-0.622,1.053-0.265,1.555l2.422,3.417
					C374.984,423.615,375.329,423.778,375.678,423.778z"/>
				<path style="fill:#FF7EE3;" d="M371.715,426c0.223,0,0.448-0.066,0.644-0.206c0.503-0.355,0.622-1.053,0.265-1.555l-2.422-3.418
					c-0.356-0.502-1.053-0.623-1.555-0.265c-0.503,0.355-0.622,1.053-0.265,1.555l2.422,3.418
					C371.021,425.836,371.365,426,371.715,426z"/>
			</g>
			<path style="fill:#522169;" d="M387.776,309.916l31.606-5.118c0,0,8.199,28.529-6.178,39.781
				c-9.736,7.62-14.248,37.05-11.351,49.097l-32.224-1.369c-0.153-8.888,4.527-29.186,6.404-34.978
				C381.51,340.427,387.776,309.916,387.776,309.916z"/>
			<path style="fill:#3D1042;" d="M404.456,360.676c-0.481-3.024-0.68-19.119-0.339-17.742c0.889,3.586,1.798,7.636,2.69,11.087
				C405.981,356.5,405.02,358.154,404.456,360.676z"/>
		</g>
		<path style="fill:#FF7EE3;" d="M369.055,249.867l25.191-6.438c11.151-2.004,16.405,3.417,18.014,9.376l7.46,28.354l13.024,27.982
			l-51.258,17.607l-15.559-50.256c-3.376-6.698-3.592-14.329-1.771-21.604c0.328-1.309,0.883-2.285,1.625-3.1
			C366.649,250.833,367.805,250.186,369.055,249.867z"/>
		<path style="fill:#D18252;" d="M380.494,232.674l5.324,12.563c0.718,1.673-1.272,7.736-5.155,10.783
			c-2.279,1.787-5.649,0.756-6.592-1.982l-4.233-12.284L380.494,232.674z"/>
		<path style="fill:#755237;" d="M371.661,247.047l-1.901-5.538l6.988-8.98l0.742,2.232
			C377.491,234.761,377.978,238.855,371.661,247.047z"/>
		<path style="fill:#D18252;" d="M382.14,236.56l-14.518,7.867c-2.102,1.159-4.552,1.081-6.513,0.009
			c-1.535-0.839-2.581-2.359-3.077-4.037l-3.255-14.792l18.938-10.44L382.14,236.56z"/>
		<path style="fill:#522169;" d="M351.168,222.976c4.708,9.593,17.468-3.847,19.002,0.48c3.925,11.069,9.462,6.735,9.462,6.735
			s3.307-19.119-6.753-16.542C362.819,216.225,344.209,208.796,351.168,222.976z"/>
		<path style="fill:#D18252;" d="M381.505,225.442c1.167,2.117,0.397,4.779-1.72,5.947c-2.117,1.167-4.779,0.397-5.947-1.72
			c-1.167-2.117-0.397-4.779,1.72-5.946C377.675,222.555,380.338,223.325,381.505,225.442z"/>
		<path style="fill:#D18252;" d="M356.198,228.455l-1.644,6.475c-0.245,0.964,0.699,1.636,1.761,1.252l2.182-0.789L356.198,228.455z
			"/>
		<g>
			<polygon style="fill:#402B6E;" points="377.388,229.063 377.106,228.982 377.955,226.047 378.237,226.128 			"/>
			<polygon style="fill:#402B6E;" points="379.098,228.12 376.163,227.271 376.245,226.989 379.181,227.839 			"/>
		</g>
		<path style="fill:#522169;" d="M360.293,230.615c0.169,0.307,0.057,0.692-0.249,0.861c-0.306,0.169-0.692,0.058-0.861-0.249
			c-0.169-0.307-0.057-0.692,0.249-0.861C359.738,230.197,360.124,230.309,360.293,230.615z"/>
		<path style="fill:#522169;" d="M361.915,228.98c-0.076,0.042-0.164,0.062-0.257,0.052l-2.675-0.273
			c-0.241-0.024-0.415-0.24-0.392-0.481c0.024-0.243,0.241-0.417,0.482-0.392l2.675,0.273c0.24,0.025,0.415,0.24,0.391,0.481
			C362.124,228.789,362.036,228.913,361.915,228.98z"/>
		<path style="fill:#FFFFFF;" d="M359.254,237.052c0,0,2.165-0.846,4.3-3.767C363.555,233.286,364.957,239.222,359.254,237.052z"/>
		<g>
			<g>
				<polygon style="fill:#D18252;" points="365.178,318.607 362.396,309.308 391.906,290.896 388.647,269.025 407.827,264.094 
					411.8,300.044 				"/>
			</g>
			<g>
				<g>
					<path style="fill:#D18252;" d="M358.687,320.675l-7.994,2.637c-0.241,0.079-0.455,0.22-0.621,0.411
						c-0.496,0.57-1.449,1.788-0.733,1.986c0.94,0.26,9.639-2.424,9.639-2.424"/>
					<path style="fill:#D18252;" d="M359.38,310.886l-1.604,2.086c-0.284,0.37-0.632,0.685-1.026,0.933l-6.618,3.604
						c0,0-1.553,1.666-0.596,2.158c0.957,0.492,8.617-1.963,8.617-1.963l-9.234,3.046c-0.194,0.064-0.367,0.176-0.502,0.328
						c-0.527,0.593-1.787,2.128-0.925,2.366c1.072,0.296,10.994-2.764,10.994-2.764"/>
					<path style="fill:#D18252;" d="M351.584,326.209c0.183-0.381,0.679-0.831,1.305-1.256l5.46-1.402l-0.605-6.131l1.636-6.534
						l4.262-1.744c0,0,5.846,3.231,1.707,11.914c-0.286,0.599-0.742,1.104-1.303,1.457l-4.792,3.014
						c-0.103,0.046-0.209,0.079-0.32,0.101c-1.102,0.216-6.765,1.817-7.194,1.698C351.496,327.258,351.417,326.557,351.584,326.209z
						"/>
				</g>
				<path style="fill:#D18252;" d="M358.159,313.393l0.297-2.003c0.095-0.914-0.731-1.209-1.469-1.758l-2.526-1.398
					c-0.323-0.179-0.362-0.634-0.067-0.856c0.568-0.429,1.687-1.307,3.387-0.615l6.465,2.358L358.159,313.393z"/>
			</g>
		</g>
	</g>
	<path style="fill:#7AADFF;" d="M338.971,184.261c24.144-1.277,43.345-21.201,43.345-45.663c0-25.289-20.5-45.788-45.788-45.788
		c-4.61,0-9.055,0.697-13.251,1.963c-7.766-31.968-36.501-55.733-70.861-55.733c-34.063,0-62.591,23.365-70.648,54.918
		c-3.247-0.729-6.61-1.148-10.074-1.148c-25.289,0-45.788,20.499-45.788,45.788c0,24.062,18.576,43.736,42.164,45.588
		L338.971,184.261z"/>
	<path style="fill:#FFFFFF;" d="M278.66,106.019L254.842,82.2c-0.404-0.404-1.06-0.404-1.464,0l-23.819,23.819
		c-1.707,1.708-1.495,4.62,0.637,6.029c1.551,1.025,3.635,0.718,4.95-0.596l15.068-15.067v47.223c0,1.859,1.257,3.551,3.078,3.925
		c2.504,0.513,4.714-1.396,4.714-3.812V96.384l15.145,15.145c0.736,0.736,1.714,1.141,2.755,1.141c1.04,0,2.018-0.405,2.754-1.141
		c0.737-0.736,1.142-1.714,1.142-2.755C279.802,107.733,279.397,106.754,278.66,106.019z"/>
	<g>
		<g>
			<polygon style="fill:#6B98E0;" points="301.438,325.456 176.058,325.456 204.3,312.511 329.679,312.511 			"/>
		</g>
		<g>
			
				<rect x="200.766" y="270.724" transform="matrix(0.9967 0.0816 -0.0816 0.9967 27.5415 -20.09)" style="fill:#FFFFFF;" width="117.354" height="112.05"/>
			
				<rect x="208.064" y="277.422" transform="matrix(0.9967 0.0816 -0.0816 0.9967 27.5338 -20.1091)" style="fill:#F74D36;" width="103.212" height="98.437"/>
			<g>
				<polygon style="fill:#15664C;" points="306.978,379.857 249.889,375.212 281.724,337.087 				"/>
				<polygon style="fill:#15664C;" points="271.286,376.953 204.186,371.493 242.23,319.001 				"/>
				
					<ellipse transform="matrix(0.9888 -0.1493 0.1493 0.9888 -43.485 43.4784)" style="fill:#15664C;" cx="267.833" cy="311.359" rx="12.242" ry="12.242"/>
			</g>
		</g>
		<g>
			
				<rect x="185.932" y="281.062" transform="matrix(0.9957 -0.0924 0.0924 0.9957 -30.1049 24.0478)" style="fill:#FFFFFF;" width="117.354" height="112.05"/>
			
				<rect x="193.208" y="287.724" transform="matrix(0.9957 -0.0924 0.0924 0.9957 -30.0903 24.0659)" style="fill:#522169;" width="103.212" height="98.437"/>
			<g>
				<polygon style="fill:#15664C;" points="300.632,381.149 243.602,386.473 268.345,343.406 				"/>
				<polygon style="fill:#15664C;" points="264.978,384.478 197.947,390.735 226.313,332.442 				"/>
				
					<ellipse transform="matrix(0.5725 -0.8199 0.8199 0.5725 -155.798 342.1413)" style="fill:#15664C;" cx="250.203" cy="320.476" rx="12.242" ry="12.242"/>
			</g>
		</g>
		<g>
			
				<rect x="199.181" y="290.07" transform="matrix(0.9961 0.0885 -0.0885 0.9961 31.6533 -21.4699)" style="fill:#FFFFFF;" width="117.354" height="112.05"/>
			
				<rect x="206.48" y="296.771" transform="matrix(0.9961 0.0885 -0.0885 0.9961 31.6452 -21.4907)" style="fill:#15664C;" width="103.212" height="98.437"/>
			<g>
				<polygon style="fill:#FF7EE3;" points="305.024,399.531 247.969,394.491 280.068,356.588 				"/>
				<polygon style="fill:#FF7EE3;" points="269.354,396.38 202.293,390.456 240.699,338.228 				"/>
				
					<ellipse transform="matrix(0.2961 -0.9551 0.9551 0.2961 -128.4498 487.2208)" style="fill:#FF7EE3;" cx="266.354" cy="330.763" rx="12.242" ry="12.242"/>
			</g>
		</g>
		<g>
			<rect x="176.058" y="325.456" style="fill:#7AADFF;" width="125.379" height="100.934"/>
		</g>
		<g>
			<polygon style="fill:#7AADFF;" points="329.679,413.445 301.438,426.39 301.438,325.456 329.679,312.511 			"/>
		</g>
		<g>
			<polygon style="fill:#7AADFF;" points="329.679,352.17 301.438,365.115 301.438,325.456 329.679,312.511 			"/>
		</g>
		<g>
			<polygon style="fill:#6691D6;" points="329.679,350.758 301.438,363.703 301.438,325.456 329.679,312.511 			"/>
		</g>
		<g>
			<polygon style="fill:#7AADFF;" points="357.92,334.871 329.679,347.816 301.438,325.456 329.679,312.511 			"/>
		</g>
		<g>
			<rect x="176.058" y="325.456" style="fill:#6691D6;" width="125.379" height="38.246"/>
		</g>
		<polygon style="fill:#7AADFF;" points="287.319,357.23 161.419,357.23 176.058,325.456 301.438,325.456 		"/>
	</g>
	<g>
		<path style="fill:#FFB781;" d="M65.861,383.631c-3.175,4.601-7.953,13.517-8.901,15.309c-0.75,1.417,8.293,8.032,8.731,7.475
			c2.446-3.106,9.092-11.63,10.866-13.842c2.994-3.734,6.468-8.301,9.827-13.026l-13.673-8.491
			C70.208,376.087,67.522,381.225,65.861,383.631z"/>
		<g>
			<path style="fill:#522169;" d="M67.479,404.23l9.963,19.554c1.064,2.089-1.384,4.205-3.297,2.85l-25.524-17.873
				c-1.884-1.425,9.974-12.786,9.974-12.786l0.199,1.822C59.258,402.064,63.262,405.029,67.479,404.23L67.479,404.23z"/>
			<path style="fill:#FF7EE3;" d="M78.312,426.393l-1.314,1.886c-0.355,0.509-1.055,0.634-1.563,0.279l-27.796-19.371
				c-0.509-0.355-0.634-1.055-0.279-1.563l1.314-1.886c0.355-0.509,1.054-0.634,1.563-0.279l27.796,19.371
				C78.541,425.184,78.666,425.884,78.312,426.393z"/>
			<path style="fill:#FF7EE3;" d="M65.474,408.894c-0.394,0-0.763-0.242-0.907-0.632c-0.185-0.502,0.071-1.058,0.573-1.243
				l3.407-1.257c0.5-0.182,1.058,0.072,1.242,0.573c0.185,0.502-0.071,1.058-0.573,1.243l-3.407,1.257
				C65.698,408.875,65.585,408.894,65.474,408.894z"/>
			<path style="fill:#FF7EE3;" d="M67.043,412.248c-0.394,0-0.763-0.242-0.908-0.633c-0.185-0.501,0.072-1.057,0.573-1.242
				l3.407-1.257c0.501-0.183,1.058,0.072,1.242,0.574c0.185,0.501-0.071,1.057-0.572,1.242l-3.407,1.257
				C67.267,412.229,67.155,412.248,67.043,412.248z"/>
			<path style="fill:#FF7EE3;" d="M68.788,415.78c-0.394,0-0.763-0.242-0.907-0.633c-0.185-0.501,0.071-1.057,0.573-1.242
				l3.407-1.256c0.502-0.184,1.058,0.072,1.243,0.573c0.185,0.501-0.072,1.057-0.573,1.242l-3.407,1.256
				C69.013,415.761,68.9,415.78,68.788,415.78z"/>
		</g>
		<path style="fill:#FF7EE3;" d="M118.489,308.086L98.486,288.17c0,0-20.241,21.895-14.745,39.305
			c3.722,11.79-7.679,32.131-16.88,40.429l27.354,17.09c5.151-7.245,8.774-16.042,10.501-21.881
			C109.754,346.074,118.489,308.086,118.489,308.086z"/>
		<path style="fill:#FFB781;" d="M119.715,395.603c-0.018,5.59,1.214,15.858,1.445,17.872c0.183,1.592,11.249,1.724,11.296,1.018
			c0.262-3.945,0.924-14.733,1.136-17.561c0.358-4.773,0.642-10.504,0.742-16.3l-16.079,0.727
			C119.035,386.923,119.724,392.68,119.715,395.603z"/>
		<g>
			<path style="fill:#522169;" d="M132.695,411.679l19.273,10.496c2.059,1.121,1.236,4.251-1.108,4.215l-31.158-0.312
				c-2.36-0.11,0.998-16.186,0.998-16.186l1.194,1.391C124.69,414.54,129.668,414.722,132.695,411.679L132.695,411.679z"/>
			<path style="fill:#FF7EE3;" d="M154.161,423.836l-0.018,2.298c-0.005,0.62-0.511,1.119-1.132,1.114l-33.879-0.263
				c-0.62-0.005-1.119-0.512-1.114-1.132l0.018-2.298c0.005-0.62,0.511-1.119,1.132-1.114l33.879,0.263
				C153.667,422.709,154.166,423.215,154.161,423.836z"/>
			<path style="fill:#FF7EE3;" d="M133.13,416.829c-0.193,0-0.389-0.058-0.558-0.178c-0.436-0.309-0.539-0.913-0.23-1.348l2.1-2.963
				c0.308-0.436,0.912-0.54,1.349-0.23c0.436,0.309,0.539,0.913,0.23,1.348l-2.1,2.963
				C133.731,416.687,133.433,416.829,133.13,416.829z"/>
			<path style="fill:#FF7EE3;" d="M136.321,418.709c-0.193,0-0.389-0.058-0.558-0.179c-0.436-0.309-0.539-0.913-0.23-1.348
				l2.1-2.963c0.308-0.435,0.912-0.54,1.348-0.23c0.436,0.309,0.539,0.913,0.23,1.348l-2.099,2.963
				C136.923,418.567,136.625,418.709,136.321,418.709z"/>
			<path style="fill:#FF7EE3;" d="M139.757,420.635c-0.193,0-0.389-0.058-0.558-0.179c-0.436-0.308-0.539-0.913-0.23-1.348
				l2.1-2.964c0.308-0.436,0.913-0.54,1.348-0.23c0.436,0.308,0.539,0.913,0.23,1.348l-2.1,2.964
				C140.359,420.493,140.06,420.635,139.757,420.635z"/>
		</g>
		<path style="fill:#FF7EE3;" d="M120.413,303.537l-27.76-5.118c0,0-4.317,29.504,10.06,40.756
			c9.736,7.62,10.366,36.076,7.469,48.122l32.224-1.369c0.153-8.888-4.527-29.186-6.404-34.978
			C130.525,334.047,120.413,303.537,120.413,303.537z"/>
		<polygon style="fill:#FFB781;" points="167.544,222.655 159.015,217.768 134.969,242.074 130.442,242.937 134.891,259.175 
			143.129,257.816 		"/>
		<polygon style="fill:#15664C;" points="97.888,249.136 108.312,263.561 134.891,259.175 130.442,242.937 		"/>
		<path style="fill:#15664C;" d="M106.905,247.571l-16.724,2.716c-1.553,0.252-3.076,0.704-4.484,1.407
			c-7.588,3.786-8.114,14.039-6.918,18.925l6.946,27.529l-2.622,14.364l7.843,2.434c5.781,1.794,11.845,2.583,17.882,2.137
			c5.972-0.441,9.037-1.917,14.274-5.126l0,0l-3.071-25.569c7.041-13.797-2.435-32.013-7.054-36.98
			c-0.874-0.94-1.787-1.478-2.788-1.794C109.126,247.278,107.984,247.291,106.905,247.571z"/>
		<path style="fill:#FFB781;" d="M91.985,234.836l-0.355,15.205c0.162,1.638,4.386,5.572,8.791,6.289
			c2.585,0.421,4.804-1.868,4.356-4.448l-2.011-11.577L91.985,234.836z"/>
		<path style="fill:#E69361;" d="M104.309,249.203l-0.913-5.216l-9.456-4.061l0.387,2.092
			C94.327,242.018,95.729,245.472,104.309,249.203z"/>
		<path style="fill:#FFB781;" d="M94.775,247.494l14.375-5.157c2.046-0.725,3.465-2.429,3.918-4.398
			c0.354-1.542-0.045-3.162-0.882-4.505l-5.968-11.517l-17.135,7.646L94.775,247.494z"/>
		<path style="fill:#F74D36;" d="M106.219,221.916c0.749,0.512-8.435,17.951-12.278,18.01l-2.099,1.096
			c0,0-12.295-3.439-7.715-16.106C86.759,217.635,99.968,217.645,106.219,221.916z"/>
		<path style="fill:#FFB781;" d="M92.099,242.029c1.786,1.143,4.161,0.622,5.305-1.165c1.143-1.787,0.622-4.161-1.165-5.305
			c-1.787-1.143-4.161-0.622-5.305,1.165C89.791,238.511,90.313,240.886,92.099,242.029z"/>
		<g>
			<polygon style="fill:#451A5E;" points="95.948,239.19 93.689,238.128 93.811,237.912 96.069,238.974 			"/>
			<polygon style="fill:#451A5E;" points="94.412,239.647 94.176,239.537 95.347,237.455 95.582,237.565 			"/>
		</g>
		<path style="fill:#451A5E;" d="M106.292,228.653c0.106,0.299,0.433,0.454,0.732,0.349c0.298-0.106,0.454-0.433,0.349-0.732
			c-0.106-0.298-0.433-0.455-0.732-0.349C106.343,228.027,106.187,228.355,106.292,228.653z"/>
		<path style="fill:#451A5E;" d="M108.786,234.369c-0.681,0.048-1.498-0.074-2.451-0.514c-0.066-0.031-0.095-0.109-0.064-0.176
			c0.03-0.066,0.108-0.096,0.176-0.064c3.064,1.415,4.577-0.577,4.64-0.662c0.044-0.058,0.126-0.072,0.185-0.029
			c0.059,0.043,0.072,0.125,0.029,0.185C111.288,233.125,110.441,234.252,108.786,234.369z"/>
		<path style="fill:#FFB781;" d="M108.03,225.601l3.18,2.353c0.412,0.305,0.536,0.866,0.29,1.316l-0.804,1.475L108.03,225.601z"/>
		<g>
			<polygon style="fill:#FFB781;" points="151.2,269.505 144.791,263.561 118.181,280.087 111.053,274.678 99.443,288.216 
				117.664,299.8 			"/>
			<path style="fill:#15664C;" d="M107.799,272.208l-27.805-12.479l1.8,9.605c1.53,7.256,3.548,10.167,10.098,14.08l7.551,4.801
				l11.61-13.538L107.799,272.208z"/>
		</g>
		
			<rect x="161.371" y="180.418" transform="matrix(0.866 0.5 -0.5 0.866 147.7019 -78.3466)" style="fill:#FFFFFF;" width="117.354" height="112.05"/>
		<g>
			<path style="fill:#FFB781;" d="M166.173,214.482l1.383,3.346c0.126,0.252,0.184,0.53,0.164,0.81
				c-0.06,0.836-0.271,2.541-0.987,2.133c-0.941-0.536-2.84-4.473-2.84-4.473"/>
			<path style="fill:#FFB781;" d="M167.697,212.725l1.383,3.346c0.126,0.252,0.184,0.53,0.164,0.81
				c-0.06,0.836-0.271,2.541-0.987,2.133c-0.941-0.536-2.84-4.473-2.84-4.473"/>
			<path style="fill:#FFB781;" d="M169.222,210.969l1.383,3.346c0.126,0.251,0.184,0.53,0.164,0.81
				c-0.06,0.836-0.271,2.541-0.987,2.133c-0.941-0.536-2.84-4.473-2.84-4.473"/>
			<path style="fill:#FFB781;" d="M168.876,211.461c0,0,1.488,3.504,2.429,4.04c0.716,0.408,0.927-1.296,0.987-2.132
				c0.02-0.28-0.038-0.559-0.164-0.81l-0.774-1.872c-0.368-0.891-1.345-1.382-2.271-1.115c-1.554,0.449-3.863,1.421-5.424,3.439
				c-2.548,3.293-4.82,4.912-4.82,4.912l1.726,1.104c1.784,1.141,4.164,0.5,5.132-1.384L168.876,211.461z"/>
		</g>
		
			<rect x="168.693" y="187.224" transform="matrix(0.866 0.5 -0.5 0.866 147.7356 -78.472)" style="fill:#FF7EE3;" width="103.212" height="98.437"/>
		<g>
			<polygon style="fill:#F74D36;" points="240.306,304.778 190.687,276.165 235.768,255.316 			"/>
			<polygon style="fill:#F74D36;" points="209.285,286.89 150.964,253.26 207.801,222.078 			"/>
			<path style="fill:#F74D36;" d="M244.874,232.136c-3.323,5.888-10.791,7.967-16.679,4.644c-5.888-3.323-7.967-10.791-4.644-16.679
				c3.323-5.888,10.791-7.968,16.679-4.644C246.118,218.78,248.198,226.247,244.874,232.136z"/>
		</g>
		<g>
			<g>
				<path style="fill:#FFB781;" d="M155.451,265.083l5.309-5.411c0.16-0.163,0.358-0.28,0.579-0.339
					c0.657-0.174,2.021-0.46,1.896,0.197c-0.164,0.863-5.791,6.826-5.791,6.826"/>
				<path style="fill:#FFB781;" d="M147.266,261.751l2.323-0.467c0.412-0.083,0.805-0.238,1.162-0.458l5.543-3.915
					c0,0,1.964-0.592,1.981,0.376c0.017,0.969-5.013,6.183-5.013,6.183l6.133-6.251c0.129-0.131,0.288-0.226,0.465-0.275
					c0.689-0.19,2.43-0.598,2.28,0.193c-0.187,0.984-6.605,7.785-6.605,7.785"/>
				<path style="fill:#FFB781;" d="M162.747,261.543c-0.38-0.004-0.941,0.219-1.534,0.555l-3.303,3.855l-4.714-2.927l-5.93-1.276
					l-3.104,2.751c0,0,0.287,6.008,8.949,6.116c0.598,0.007,1.187-0.16,1.695-0.473l4.341-2.674
					c0.078-0.065,0.147-0.137,0.209-0.218c0.612-0.805,4.157-4.745,4.232-5.138C163.63,261.889,163.095,261.547,162.747,261.543z"/>
			</g>
			<path style="fill:#FFB781;" d="M149.777,261.761l-1.736-0.556c-0.777-0.287-0.686-1.072-0.836-1.886l-0.126-2.597
				c-0.016-0.332-0.368-0.545-0.665-0.395c-0.572,0.289-1.727,0.844-1.843,2.493l-0.665,6.162L149.777,261.761z"/>
		</g>
		<path style="fill:#F74D36;" d="M89.084,225.213c0,0-8.256-11.149-19.007-4.296c-10.752,6.853-3.456,21.366-2.688,25.149
			c0.768,3.783-2.496,8.842-6.144,9.288c0,0,8.832,6.65,16.127-3.939c7.296-10.59,0.55-24.696,6.035-24.458
			C88.892,227.195,89.084,225.213,89.084,225.213z"/>
		<path style="fill:#15664C;" d="M86.403,221.734c0,0-5.249,0.183-3.048,5.944"/>
		<path style="fill:#CF4BB2;" d="M110.551,356.933c0.481-3.024,1.082-20.114,0.741-18.737c-0.889,3.586-1.798,7.196-2.69,10.647
			C109.428,351.323,110.071,354.063,110.551,356.933z"/>
	</g>
</g>
<g id="DESIGNED_BY_FREEPIK">
	<g>
		<g id="XMLID_319_">
			<g id="XMLID_338_">
				<g id="XMLID_346_">
					<path style="fill:#999999;" d="M260.104,465.465c-0.432,0.443-0.803,0.931-1.108,1.453l-0.465-0.241
						c-0.067-0.298-0.349-0.503-0.659-0.466c-0.331,0.039-0.568,0.339-0.529,0.67s0.339,0.568,0.67,0.529
						c0.065-0.008,0.127-0.026,0.184-0.052l0.451,0.234c-0.251,0.554-0.433,1.139-0.539,1.744l0.746,0.132
						c0.23-1.306,0.85-2.507,1.792-3.473L260.104,465.465z"/>
				</g>
				<g id="XMLID_345_">
					<path style="fill:#999999;" d="M265.592,463.163c-0.171,0-0.341,0.006-0.51,0.017l-0.074-0.626
						c0.188-0.149,0.296-0.389,0.266-0.645c-0.046-0.393-0.402-0.674-0.795-0.628s-0.674,0.402-0.628,0.795
						c0.03,0.254,0.189,0.461,0.405,0.564l0.073,0.624c-0.714,0.116-1.403,0.332-2.06,0.646l0.327,0.684
						c0.934-0.447,1.942-0.673,2.995-0.673c0.496,0,0.993,0.053,1.475,0.158l0.161-0.741
						C266.693,463.222,266.142,463.163,265.592,463.163z"/>
				</g>
				<g id="XMLID_344_">
					<path style="fill:#999999;" d="M272.194,465.711c0.331-0.04,0.566-0.341,0.525-0.672c-0.04-0.331-0.341-0.566-0.672-0.526
						c-0.309,0.038-0.535,0.304-0.53,0.609l-0.416,0.363c-0.418-0.43-0.89-0.813-1.408-1.139l-0.404,0.641
						c1.134,0.715,2.021,1.726,2.563,2.925l0.691-0.313c-0.251-0.554-0.568-1.072-0.942-1.545l0.402-0.351
						C272.065,465.716,272.129,465.719,272.194,465.711z"/>
				</g>
				<g id="XMLID_343_">
					<path style="fill:#999999;" d="M265.044,473.372c-0.386,0.023-0.775,0.035-1.157,0.035c-0.88,0-1.733-0.061-2.478-0.179
						c-0.39-0.062-0.846-0.155-1.27-0.292c1.046,1.861,3.069,3.125,5.388,3.125c2.855,0,5.262-1.916,5.95-4.504
						c-0.682,0.449-1.505,0.825-2.459,1.123C267.839,473.047,266.464,473.286,265.044,473.372z"/>
				</g>
				<g id="XMLID_339_">
					<path style="fill:#999999;" d="M265.592,464.68c-3.352,0-6.08,2.666-6.08,5.943c0,0.426,0.046,0.849,0.137,1.261
						c0.674,0.483,2.706,0.89,5.348,0.731c2.879-0.173,5.297-0.957,6.672-2.159c-0.005-0.195-0.021-0.39-0.045-0.582
						C271.244,466.913,268.65,464.68,265.592,464.68z M263.432,471.194c-1.02,0-1.85-0.83-1.85-1.85c0-1.02,0.83-1.85,1.85-1.85
						c1.02,0,1.85,0.83,1.85,1.85C265.282,470.365,264.452,471.194,263.432,471.194z M268.17,470.286c-0.75,0-1.36-0.61-1.36-1.36
						s0.61-1.361,1.36-1.361c0.75,0,1.361,0.61,1.361,1.361S268.92,470.286,268.17,470.286z"/>
				</g>
			</g>
			<g id="XMLID_336_">
				<path style="fill:#999999;" d="M281.595,466.547c-0.295-0.116-0.806-0.309-1.382-0.237c-0.551,0.069-0.844,0.341-0.844,1.007
					v0.866h2.228v1.717h-2.228v5.455h-1.932v-5.455h-1.34v-1.717h1.34v-0.888c0-1.68,0.896-2.783,2.568-2.783
					c0.642,0,1.157,0.122,1.59,0.308L281.595,466.547z"/>
			</g>
			<g id="XMLID_334_">
				<path style="fill:#999999;" d="M286.298,469.879c-0.177-0.03-0.358-0.046-0.526-0.046c-0.896,0-1.51,0.548-1.51,1.614v3.908
					h-1.932v-7.172h1.873v0.785c0.451-0.673,1.14-0.977,2.021-0.977c0.414,0,0.848,0.128,1.094,0.337L286.298,469.879z"/>
			</g>
			<g id="XMLID_331_">
				<path style="fill:#999999;" d="M293.965,471.757c0,0.222-0.015,0.489-0.037,0.651h-5.085c0.207,1.036,0.933,1.488,1.843,1.488
					c0.622,0,1.295-0.252,1.813-0.688l1.132,1.243c-0.814,0.748-1.85,1.088-3.057,1.088c-2.198,0-3.723-1.495-3.723-3.753
					c0-2.258,1.48-3.797,3.627-3.797C292.544,467.99,293.958,469.522,293.965,471.757z M288.851,471.091h3.175
					c-0.177-0.918-0.733-1.436-1.562-1.436C289.554,469.655,289.021,470.203,288.851,471.091z"/>
			</g>
			<g id="XMLID_328_">
				<path style="fill:#999999;" d="M301.618,471.757c0,0.222-0.015,0.489-0.037,0.651h-5.085c0.207,1.036,0.932,1.488,1.843,1.488
					c0.622,0,1.295-0.252,1.813-0.688l1.132,1.243c-0.814,0.748-1.85,1.088-3.057,1.088c-2.198,0-3.723-1.495-3.723-3.753
					c0-2.258,1.48-3.797,3.627-3.797C300.197,467.99,301.611,469.522,301.618,471.757z M296.504,471.091h3.175
					c-0.178-0.918-0.733-1.436-1.562-1.436C297.207,469.655,296.674,470.203,296.504,471.091z"/>
			</g>
			<g id="XMLID_325_">
				<path style="fill:#999999;" d="M309.964,471.764c0,2.154-1.495,3.775-3.471,3.775c-0.962,0-1.643-0.378-2.109-0.933v3.708
					h-1.924v-10.133h1.887v0.792c0.466-0.585,1.155-0.984,2.139-0.984C308.469,467.99,309.964,469.61,309.964,471.764z
					 M304.287,471.764c0,1.132,0.747,1.976,1.843,1.976c1.14,0,1.85-0.881,1.85-1.976c0-1.095-0.71-1.976-1.85-1.976
					C305.035,469.788,304.287,470.632,304.287,471.764z"/>
			</g>
			<g id="XMLID_322_">
				<path style="fill:#999999;" d="M313.068,465.836c0,0.696-0.54,1.229-1.236,1.229c-0.696,0-1.229-0.533-1.229-1.229
					c0-0.696,0.533-1.243,1.229-1.243C312.527,464.592,313.068,465.14,313.068,465.836z M312.809,475.354h-1.932v-7.172h1.932
					V475.354z"/>
			</g>
			<g id="XMLID_320_">
				<path style="fill:#999999;" d="M316.032,470.736l2.702-2.554h2.368l-3.479,3.375l3.501,3.797h-2.376l-2.716-2.901v2.901H314.1
					v-10.658h1.932V470.736z"/>
			</g>
		</g>
		<g>
			<g>
				<path style="fill:#999999;" d="M184.412,475.289v-1.055c-0.527,0.718-1.391,1.23-2.387,1.23c-1.846,0-3.149-1.406-3.149-3.706
					c0-2.256,1.289-3.721,3.149-3.721c0.952,0,1.816,0.469,2.387,1.245v-3.765h1.099v9.77H184.412z M184.412,473.37v-3.208
					c-0.395-0.615-1.245-1.143-2.124-1.143c-1.421,0-2.27,1.172-2.27,2.739c0,1.567,0.85,2.724,2.27,2.724
					C183.168,474.483,184.017,473.986,184.412,473.37z"/>
			</g>
			<g>
				<path style="fill:#999999;" d="M186.932,471.744c0-2.051,1.465-3.706,3.486-3.706c2.139,0,3.398,1.67,3.398,3.794v0.279h-5.727
					c0.088,1.333,1.025,2.446,2.549,2.446c0.805,0,1.626-0.322,2.182-0.894l0.527,0.718c-0.703,0.703-1.655,1.084-2.812,1.084
					C188.44,475.465,186.932,473.956,186.932,471.744z M190.403,468.947c-1.509,0-2.256,1.274-2.314,2.358h4.643
					C192.718,470.25,192.015,468.947,190.403,468.947z"/>
			</g>
			<g>
				<path style="fill:#999999;" d="M194.607,474.351l0.571-0.791c0.469,0.542,1.362,1.011,2.329,1.011
					c1.084,0,1.67-0.513,1.67-1.216c0-1.714-4.38-0.659-4.38-3.281c0-1.098,0.952-2.036,2.636-2.036
					c1.201,0,2.051,0.454,2.622,1.026l-0.513,0.762c-0.424-0.513-1.201-0.894-2.109-0.894c-0.967,0-1.567,0.483-1.567,1.113
					c0,1.552,4.38,0.527,4.38,3.281c0,1.187-0.952,2.138-2.783,2.138C196.306,475.465,195.325,475.113,194.607,474.351z"/>
			</g>
			<g>
				<path style="fill:#999999;" d="M201.477,466.471c0-0.41,0.337-0.747,0.732-0.747c0.41,0,0.747,0.337,0.747,0.747
					c0,0.41-0.337,0.732-0.747,0.732C201.814,467.203,201.477,466.881,201.477,466.471z M201.667,475.289v-7.075h1.099v7.075
					H201.667z"/>
			</g>
			<g>
				<path style="fill:#999999;" d="M204.582,477.105l0.556-0.82c0.586,0.703,1.289,0.967,2.3,0.967c1.172,0,2.27-0.571,2.27-2.124
					v-1.011c-0.513,0.718-1.377,1.26-2.373,1.26c-1.845,0-3.149-1.377-3.149-3.662c0-2.27,1.289-3.677,3.149-3.677
					c0.952,0,1.802,0.469,2.373,1.245v-1.069h1.098v6.87c0,2.344-1.641,3.076-3.369,3.076
					C206.237,478.16,205.417,477.926,204.582,477.105z M209.709,473.253v-3.091c-0.381-0.615-1.23-1.143-2.109-1.143
					c-1.421,0-2.27,1.128-2.27,2.695c0,1.553,0.849,2.695,2.27,2.695C208.478,474.41,209.328,473.868,209.709,473.253z"/>
			</g>
			<g>
				<path style="fill:#999999;" d="M217.413,475.289v-4.629c0-1.245-0.63-1.641-1.582-1.641c-0.865,0-1.685,0.527-2.095,1.099v5.17
					h-1.099v-7.075h1.099v1.025c0.498-0.586,1.464-1.201,2.519-1.201c1.48,0,2.256,0.747,2.256,2.285v4.966H217.413z"/>
			</g>
			<g>
				<path style="fill:#999999;" d="M219.932,471.744c0-2.051,1.465-3.706,3.486-3.706c2.139,0,3.398,1.67,3.398,3.794v0.279h-5.727
					c0.088,1.333,1.025,2.446,2.549,2.446c0.806,0,1.626-0.322,2.183-0.894l0.527,0.718c-0.703,0.703-1.655,1.084-2.812,1.084
					C221.441,475.465,219.932,473.956,219.932,471.744z M223.404,468.947c-1.509,0-2.256,1.274-2.314,2.358h4.643
					C225.718,470.25,225.015,468.947,223.404,468.947z"/>
			</g>
			<g>
				<path style="fill:#999999;" d="M233.35,475.289v-1.055c-0.527,0.718-1.392,1.23-2.388,1.23c-1.846,0-3.149-1.406-3.149-3.706
					c0-2.256,1.289-3.721,3.149-3.721c0.952,0,1.817,0.469,2.388,1.245v-3.765h1.098v9.77H233.35z M233.35,473.37v-3.208
					c-0.396-0.615-1.245-1.143-2.124-1.143c-1.421,0-2.27,1.172-2.27,2.739c0,1.567,0.849,2.724,2.27,2.724
					C232.105,474.483,232.954,473.986,233.35,473.37z"/>
			</g>
			<g>
				<path style="fill:#999999;" d="M239.692,475.289v-9.77h1.098v3.765c0.572-0.776,1.421-1.245,2.388-1.245
					c1.845,0,3.149,1.465,3.149,3.721c0,2.299-1.304,3.706-3.149,3.706c-0.996,0-1.86-0.513-2.388-1.23v1.055H239.692z
					 M242.9,474.483c1.436,0,2.285-1.157,2.285-2.724c0-1.568-0.85-2.739-2.285-2.739c-0.864,0-1.728,0.527-2.109,1.143v3.208
					C241.171,473.986,242.036,474.483,242.9,474.483z"/>
			</g>
			<g>
				<path style="fill:#999999;" d="M247.528,477.061c0.161,0.073,0.425,0.117,0.601,0.117c0.483,0,0.805-0.161,1.055-0.747
					l0.469-1.069l-2.959-7.148h1.187l2.358,5.8l2.344-5.8h1.201l-3.545,8.51c-0.425,1.025-1.143,1.421-2.08,1.435
					c-0.234,0-0.601-0.044-0.805-0.103L247.528,477.061z"/>
			</g>
		</g>
	</g>
</g>
</svg>
